<mxfile host="app.diagrams.net" agent="Mozilla/5.0 (Windows NT 10.0; Win64; x64) AppleWebKit/537.36 (KHTML, like Gecko) Chrome/129.0.0.0 Safari/537.36" version="24.7.17">
  <diagram id="uWcY8DVV1-jxPrR0PqOW" name="1 oldal">
    <mxGraphModel dx="2501" dy="780" grid="1" gridSize="10" guides="1" tooltips="1" connect="1" arrows="1" fold="1" page="1" pageScale="1" pageWidth="827" pageHeight="1169" math="0" shadow="0">
      <root>
        <mxCell id="0" />
        <mxCell id="1" parent="0" />
        <mxCell id="vWZzBTeYcd54lfAUy1A8-1" value="Férj" style="rounded=0;whiteSpace=wrap;html=1;" vertex="1" parent="1">
          <mxGeometry x="90" y="330" width="180" height="80" as="geometry" />
        </mxCell>
        <mxCell id="vWZzBTeYcd54lfAUy1A8-2" value="házasság" style="rhombus;whiteSpace=wrap;html=1;" vertex="1" parent="1">
          <mxGeometry x="360" y="330" width="80" height="80" as="geometry" />
        </mxCell>
        <mxCell id="vWZzBTeYcd54lfAUy1A8-3" value="" style="endArrow=classic;html=1;rounded=0;entryX=0;entryY=0.5;entryDx=0;entryDy=0;" edge="1" parent="1">
          <mxGeometry width="50" height="50" relative="1" as="geometry">
            <mxPoint x="440" y="370" as="sourcePoint" />
            <mxPoint x="530" y="370" as="targetPoint" />
          </mxGeometry>
        </mxCell>
        <mxCell id="vWZzBTeYcd54lfAUy1A8-4" value="" style="endArrow=classic;html=1;rounded=0;entryX=1;entryY=0.5;entryDx=0;entryDy=0;exitX=0;exitY=0.5;exitDx=0;exitDy=0;" edge="1" parent="1" source="vWZzBTeYcd54lfAUy1A8-2" target="vWZzBTeYcd54lfAUy1A8-1">
          <mxGeometry width="50" height="50" relative="1" as="geometry">
            <mxPoint x="350" y="380" as="sourcePoint" />
            <mxPoint x="400" y="330" as="targetPoint" />
          </mxGeometry>
        </mxCell>
        <mxCell id="vWZzBTeYcd54lfAUy1A8-5" value="név" style="ellipse;whiteSpace=wrap;html=1;" vertex="1" parent="1">
          <mxGeometry y="470" width="100" height="30" as="geometry" />
        </mxCell>
        <mxCell id="vWZzBTeYcd54lfAUy1A8-6" value="sz_dátum" style="ellipse;whiteSpace=wrap;html=1;" vertex="1" parent="1">
          <mxGeometry x="140" y="470" width="100" height="30" as="geometry" />
        </mxCell>
        <mxCell id="vWZzBTeYcd54lfAUy1A8-7" value="kor" style="ellipse;whiteSpace=wrap;html=1;dashed=1;dashPattern=12 12;" vertex="1" parent="1">
          <mxGeometry x="270" y="470" width="100" height="30" as="geometry" />
        </mxCell>
        <mxCell id="vWZzBTeYcd54lfAUy1A8-8" value="&lt;u&gt;személyi_ig&lt;/u&gt;" style="ellipse;whiteSpace=wrap;html=1;" vertex="1" parent="1">
          <mxGeometry x="-63" y="355" width="100" height="30" as="geometry" />
        </mxCell>
        <mxCell id="vWZzBTeYcd54lfAUy1A8-9" value="lakhely" style="ellipse;whiteSpace=wrap;html=1;" vertex="1" parent="1">
          <mxGeometry x="133" y="270" width="100" height="30" as="geometry" />
        </mxCell>
        <mxCell id="vWZzBTeYcd54lfAUy1A8-10" value="irszám" style="ellipse;whiteSpace=wrap;html=1;" vertex="1" parent="1">
          <mxGeometry x="140" y="190" width="86" height="30" as="geometry" />
        </mxCell>
        <mxCell id="vWZzBTeYcd54lfAUy1A8-11" value="kozterulet" style="ellipse;whiteSpace=wrap;html=1;" vertex="1" parent="1">
          <mxGeometry x="33" y="190" width="86" height="30" as="geometry" />
        </mxCell>
        <mxCell id="vWZzBTeYcd54lfAUy1A8-12" value="hazszam" style="ellipse;whiteSpace=wrap;html=1;" vertex="1" parent="1">
          <mxGeometry x="250" y="190" width="76" height="30" as="geometry" />
        </mxCell>
        <mxCell id="vWZzBTeYcd54lfAUy1A8-15" value="" style="endArrow=none;html=1;rounded=0;entryX=0.556;entryY=1;entryDx=0;entryDy=0;entryPerimeter=0;exitX=0.5;exitY=0;exitDx=0;exitDy=0;" edge="1" parent="1" target="vWZzBTeYcd54lfAUy1A8-1" source="vWZzBTeYcd54lfAUy1A8-6">
          <mxGeometry width="50" height="50" relative="1" as="geometry">
            <mxPoint x="200" y="480" as="sourcePoint" />
            <mxPoint x="250" y="430" as="targetPoint" />
          </mxGeometry>
        </mxCell>
        <mxCell id="vWZzBTeYcd54lfAUy1A8-16" value="" style="endArrow=none;html=1;rounded=0;entryX=0.911;entryY=0.975;entryDx=0;entryDy=0;entryPerimeter=0;exitX=0.5;exitY=0;exitDx=0;exitDy=0;" edge="1" parent="1" target="vWZzBTeYcd54lfAUy1A8-1" source="vWZzBTeYcd54lfAUy1A8-7">
          <mxGeometry width="50" height="50" relative="1" as="geometry">
            <mxPoint x="320" y="450" as="sourcePoint" />
            <mxPoint x="370" y="400" as="targetPoint" />
          </mxGeometry>
        </mxCell>
        <mxCell id="vWZzBTeYcd54lfAUy1A8-17" value="" style="endArrow=none;html=1;rounded=0;entryX=0.5;entryY=1;entryDx=0;entryDy=0;" edge="1" parent="1" target="vWZzBTeYcd54lfAUy1A8-9">
          <mxGeometry width="50" height="50" relative="1" as="geometry">
            <mxPoint x="180" y="329" as="sourcePoint" />
            <mxPoint x="230" y="280" as="targetPoint" />
          </mxGeometry>
        </mxCell>
        <mxCell id="vWZzBTeYcd54lfAUy1A8-18" value="" style="endArrow=none;html=1;rounded=0;entryX=0.03;entryY=0.3;entryDx=0;entryDy=0;entryPerimeter=0;exitX=0.64;exitY=0.967;exitDx=0;exitDy=0;exitPerimeter=0;" edge="1" parent="1" target="vWZzBTeYcd54lfAUy1A8-9" source="vWZzBTeYcd54lfAUy1A8-11">
          <mxGeometry width="50" height="50" relative="1" as="geometry">
            <mxPoint x="100" y="250" as="sourcePoint" />
            <mxPoint x="150" y="200" as="targetPoint" />
          </mxGeometry>
        </mxCell>
        <mxCell id="vWZzBTeYcd54lfAUy1A8-19" value="" style="endArrow=none;html=1;rounded=0;exitX=0.5;exitY=0;exitDx=0;exitDy=0;entryX=0.5;entryY=1;entryDx=0;entryDy=0;" edge="1" parent="1" source="vWZzBTeYcd54lfAUy1A8-9" target="vWZzBTeYcd54lfAUy1A8-10">
          <mxGeometry width="50" height="50" relative="1" as="geometry">
            <mxPoint x="140" y="270" as="sourcePoint" />
            <mxPoint x="190" y="220" as="targetPoint" />
          </mxGeometry>
        </mxCell>
        <mxCell id="vWZzBTeYcd54lfAUy1A8-20" value="" style="endArrow=none;html=1;rounded=0;exitX=1;exitY=0;exitDx=0;exitDy=0;entryX=0.355;entryY=1.067;entryDx=0;entryDy=0;entryPerimeter=0;" edge="1" parent="1" source="vWZzBTeYcd54lfAUy1A8-9" target="vWZzBTeYcd54lfAUy1A8-12">
          <mxGeometry width="50" height="50" relative="1" as="geometry">
            <mxPoint x="230" y="290" as="sourcePoint" />
            <mxPoint x="280" y="240" as="targetPoint" />
          </mxGeometry>
        </mxCell>
        <mxCell id="vWZzBTeYcd54lfAUy1A8-21" value="Feleség" style="rounded=0;whiteSpace=wrap;html=1;" vertex="1" parent="1">
          <mxGeometry x="530" y="330" width="180" height="80" as="geometry" />
        </mxCell>
        <mxCell id="vWZzBTeYcd54lfAUy1A8-22" value="név" style="ellipse;whiteSpace=wrap;html=1;" vertex="1" parent="1">
          <mxGeometry x="473" y="470" width="100" height="30" as="geometry" />
        </mxCell>
        <mxCell id="vWZzBTeYcd54lfAUy1A8-23" value="sz_dátum" style="ellipse;whiteSpace=wrap;html=1;" vertex="1" parent="1">
          <mxGeometry x="587" y="470" width="100" height="30" as="geometry" />
        </mxCell>
        <mxCell id="vWZzBTeYcd54lfAUy1A8-24" value="kor" style="ellipse;whiteSpace=wrap;html=1;dashed=1;dashPattern=12 12;" vertex="1" parent="1">
          <mxGeometry x="700" y="470" width="100" height="30" as="geometry" />
        </mxCell>
        <mxCell id="vWZzBTeYcd54lfAUy1A8-25" value="&lt;u&gt;személyi_ig&lt;/u&gt;" style="ellipse;whiteSpace=wrap;html=1;" vertex="1" parent="1">
          <mxGeometry x="763" y="360" width="100" height="30" as="geometry" />
        </mxCell>
        <mxCell id="vWZzBTeYcd54lfAUy1A8-26" value="lakhely" style="ellipse;whiteSpace=wrap;html=1;" vertex="1" parent="1">
          <mxGeometry x="573" y="270" width="100" height="30" as="geometry" />
        </mxCell>
        <mxCell id="vWZzBTeYcd54lfAUy1A8-27" value="irszám" style="ellipse;whiteSpace=wrap;html=1;" vertex="1" parent="1">
          <mxGeometry x="580" y="190" width="86" height="30" as="geometry" />
        </mxCell>
        <mxCell id="vWZzBTeYcd54lfAUy1A8-28" value="kozterulet" style="ellipse;whiteSpace=wrap;html=1;" vertex="1" parent="1">
          <mxGeometry x="470" y="190" width="86" height="30" as="geometry" />
        </mxCell>
        <mxCell id="vWZzBTeYcd54lfAUy1A8-29" value="hazszam" style="ellipse;whiteSpace=wrap;html=1;" vertex="1" parent="1">
          <mxGeometry x="687" y="190" width="76" height="30" as="geometry" />
        </mxCell>
        <mxCell id="vWZzBTeYcd54lfAUy1A8-31" value="" style="endArrow=none;html=1;rounded=0;entryX=0.211;entryY=1.038;entryDx=0;entryDy=0;entryPerimeter=0;exitX=0.61;exitY=0.133;exitDx=0;exitDy=0;exitPerimeter=0;" edge="1" parent="1" source="vWZzBTeYcd54lfAUy1A8-22" target="vWZzBTeYcd54lfAUy1A8-21">
          <mxGeometry width="50" height="50" relative="1" as="geometry">
            <mxPoint x="540" y="460" as="sourcePoint" />
            <mxPoint x="590" y="410" as="targetPoint" />
          </mxGeometry>
        </mxCell>
        <mxCell id="vWZzBTeYcd54lfAUy1A8-32" value="" style="endArrow=none;html=1;rounded=0;entryX=0.556;entryY=1;entryDx=0;entryDy=0;entryPerimeter=0;" edge="1" parent="1" target="vWZzBTeYcd54lfAUy1A8-21">
          <mxGeometry width="50" height="50" relative="1" as="geometry">
            <mxPoint x="640" y="480" as="sourcePoint" />
            <mxPoint x="690" y="430" as="targetPoint" />
          </mxGeometry>
        </mxCell>
        <mxCell id="vWZzBTeYcd54lfAUy1A8-33" value="" style="endArrow=none;html=1;rounded=0;entryX=0.911;entryY=0.975;entryDx=0;entryDy=0;entryPerimeter=0;exitX=0.4;exitY=-0.033;exitDx=0;exitDy=0;exitPerimeter=0;" edge="1" parent="1" target="vWZzBTeYcd54lfAUy1A8-21" source="vWZzBTeYcd54lfAUy1A8-24">
          <mxGeometry width="50" height="50" relative="1" as="geometry">
            <mxPoint x="760" y="460" as="sourcePoint" />
            <mxPoint x="810" y="410" as="targetPoint" />
          </mxGeometry>
        </mxCell>
        <mxCell id="vWZzBTeYcd54lfAUy1A8-34" value="" style="endArrow=none;html=1;rounded=0;entryX=0.5;entryY=1;entryDx=0;entryDy=0;" edge="1" parent="1" target="vWZzBTeYcd54lfAUy1A8-26">
          <mxGeometry width="50" height="50" relative="1" as="geometry">
            <mxPoint x="620" y="329" as="sourcePoint" />
            <mxPoint x="670" y="280" as="targetPoint" />
          </mxGeometry>
        </mxCell>
        <mxCell id="vWZzBTeYcd54lfAUy1A8-35" value="" style="endArrow=none;html=1;rounded=0;entryX=0.03;entryY=0.3;entryDx=0;entryDy=0;entryPerimeter=0;exitX=1;exitY=1;exitDx=0;exitDy=0;" edge="1" parent="1" source="vWZzBTeYcd54lfAUy1A8-28" target="vWZzBTeYcd54lfAUy1A8-26">
          <mxGeometry width="50" height="50" relative="1" as="geometry">
            <mxPoint x="540" y="250" as="sourcePoint" />
            <mxPoint x="590" y="200" as="targetPoint" />
          </mxGeometry>
        </mxCell>
        <mxCell id="vWZzBTeYcd54lfAUy1A8-36" value="" style="endArrow=none;html=1;rounded=0;exitX=0.5;exitY=0;exitDx=0;exitDy=0;entryX=0.5;entryY=1;entryDx=0;entryDy=0;" edge="1" parent="1" source="vWZzBTeYcd54lfAUy1A8-26" target="vWZzBTeYcd54lfAUy1A8-27">
          <mxGeometry width="50" height="50" relative="1" as="geometry">
            <mxPoint x="580" y="270" as="sourcePoint" />
            <mxPoint x="630" y="220" as="targetPoint" />
          </mxGeometry>
        </mxCell>
        <mxCell id="vWZzBTeYcd54lfAUy1A8-37" value="" style="endArrow=none;html=1;rounded=0;exitX=1;exitY=0;exitDx=0;exitDy=0;entryX=0;entryY=1;entryDx=0;entryDy=0;" edge="1" parent="1" source="vWZzBTeYcd54lfAUy1A8-26" target="vWZzBTeYcd54lfAUy1A8-29">
          <mxGeometry width="50" height="50" relative="1" as="geometry">
            <mxPoint x="670" y="290" as="sourcePoint" />
            <mxPoint x="720" y="240" as="targetPoint" />
          </mxGeometry>
        </mxCell>
        <mxCell id="vWZzBTeYcd54lfAUy1A8-39" value="" style="endArrow=none;html=1;rounded=0;entryX=0;entryY=0.5;entryDx=0;entryDy=0;" edge="1" parent="1" target="vWZzBTeYcd54lfAUy1A8-1">
          <mxGeometry width="50" height="50" relative="1" as="geometry">
            <mxPoint x="37" y="370" as="sourcePoint" />
            <mxPoint x="87" y="320" as="targetPoint" />
          </mxGeometry>
        </mxCell>
        <mxCell id="vWZzBTeYcd54lfAUy1A8-40" value="" style="endArrow=none;html=1;rounded=0;entryX=0;entryY=0.5;entryDx=0;entryDy=0;" edge="1" parent="1">
          <mxGeometry width="50" height="50" relative="1" as="geometry">
            <mxPoint x="710" y="374.5" as="sourcePoint" />
            <mxPoint x="763" y="374.5" as="targetPoint" />
          </mxGeometry>
        </mxCell>
        <mxCell id="vWZzBTeYcd54lfAUy1A8-41" value="" style="endArrow=none;html=1;rounded=0;entryX=0.072;entryY=1.038;entryDx=0;entryDy=0;entryPerimeter=0;exitX=0.67;exitY=-0.033;exitDx=0;exitDy=0;exitPerimeter=0;" edge="1" parent="1" source="vWZzBTeYcd54lfAUy1A8-5" target="vWZzBTeYcd54lfAUy1A8-1">
          <mxGeometry width="50" height="50" relative="1" as="geometry">
            <mxPoint x="80" y="450" as="sourcePoint" />
            <mxPoint x="130" y="400" as="targetPoint" />
          </mxGeometry>
        </mxCell>
      </root>
    </mxGraphModel>
  </diagram>
</mxfile>
